<svg width="135" height="27" viewBox="0 0 135 27" fill="none" xmlns="http://www.w3.org/2000/svg">
<path d="M12.5489 2.92705C12.8483 2.00574 14.1517 2.00574 14.4511 2.92705L16.3064 8.63729C16.4403 9.04931 16.8243 9.32827 17.2575 9.32827H23.2616C24.2303 9.32827 24.6331 10.5679 23.8494 11.1373L18.9919 14.6664C18.6415 14.9211 18.4948 15.3724 18.6287 15.7844L20.484 21.4947C20.7834 22.416 19.7289 23.1821 18.9452 22.6127L14.0878 19.0836C13.7373 18.8289 13.2627 18.8289 12.9122 19.0836L8.0548 22.6127C7.27108 23.1821 6.2166 22.416 6.51596 21.4947L8.37132 15.7844C8.5052 15.3724 8.35854 14.9211 8.00805 14.6664L3.15064 11.1373C2.36692 10.5679 2.7697 9.32827 3.73842 9.32827H9.74252C10.1757 9.32827 10.5597 9.04931 10.6936 8.63729L12.5489 2.92705Z" fill="#FFA801"/>
<path d="M39.5489 2.92705C39.8483 2.00574 41.1517 2.00574 41.4511 2.92705L43.3064 8.63729C43.4403 9.04931 43.8243 9.32827 44.2575 9.32827H50.2616C51.2303 9.32827 51.6331 10.5679 50.8494 11.1373L45.9919 14.6664C45.6415 14.9211 45.4948 15.3724 45.6287 15.7844L47.484 21.4947C47.7834 22.416 46.7289 23.1821 45.9452 22.6127L41.0878 19.0836C40.7373 18.8289 40.2627 18.8289 39.9122 19.0836L35.0548 22.6127C34.2711 23.1821 33.2166 22.416 33.516 21.4947L35.3713 15.7844C35.5052 15.3724 35.3585 14.9211 35.0081 14.6664L30.1506 11.1373C29.3669 10.5679 29.7697 9.32827 30.7384 9.32827H36.7425C37.1757 9.32827 37.5597 9.04931 37.6936 8.63729L39.5489 2.92705Z" fill="#FFA801"/>
<path d="M66.5489 2.92705C66.8483 2.00574 68.1517 2.00574 68.4511 2.92705L70.3064 8.63729C70.4403 9.04931 70.8243 9.32827 71.2575 9.32827H77.2616C78.2303 9.32827 78.6331 10.5679 77.8494 11.1373L72.9919 14.6664C72.6415 14.9211 72.4948 15.3724 72.6287 15.7844L74.484 21.4947C74.7834 22.416 73.7289 23.1821 72.9452 22.6127L68.0878 19.0836C67.7373 18.8289 67.2627 18.8289 66.9122 19.0836L62.0548 22.6127C61.2711 23.1821 60.2166 22.416 60.516 21.4947L62.3713 15.7844C62.5052 15.3724 62.3585 14.9211 62.0081 14.6664L57.1506 11.1373C56.3669 10.5679 56.7697 9.32827 57.7384 9.32827H63.7425C64.1757 9.32827 64.5597 9.04931 64.6936 8.63729L66.5489 2.92705Z" fill="#FFA801"/>
<path d="M93.5489 2.92705C93.8483 2.00574 95.1517 2.00574 95.4511 2.92705L97.3064 8.63729C97.4403 9.04931 97.8243 9.32827 98.2575 9.32827H104.262C105.23 9.32827 105.633 10.5679 104.849 11.1373L99.9919 14.6664C99.6415 14.9211 99.4948 15.3724 99.6287 15.7844L101.484 21.4947C101.783 22.416 100.729 23.1821 99.9452 22.6127L95.0878 19.0836C94.7373 18.8289 94.2627 18.8289 93.9122 19.0836L89.0548 22.6127C88.2711 23.1821 87.2166 22.416 87.516 21.4947L89.3713 15.7844C89.5052 15.3724 89.3585 14.9211 89.0081 14.6664L84.1506 11.1373C83.3669 10.5679 83.7697 9.32827 84.7384 9.32827H90.7425C91.1757 9.32827 91.5597 9.04931 91.6936 8.63729L93.5489 2.92705Z" fill="#FFA801"/>
<path d="M120.549 2.92705C120.848 2.00574 122.152 2.00574 122.451 2.92705L124.306 8.63729C124.44 9.04931 124.824 9.32827 125.257 9.32827H131.262C132.23 9.32827 132.633 10.5679 131.849 11.1373L126.992 14.6664C126.641 14.9211 126.495 15.3724 126.629 15.7844L128.484 21.4947C128.783 22.416 127.729 23.1821 126.945 22.6127L122.088 19.0836C121.737 18.8289 121.263 18.8289 120.912 19.0836L116.055 22.6127C115.271 23.1821 114.217 22.416 114.516 21.4947L116.371 15.7844C116.505 15.3724 116.359 14.9211 116.008 14.6664L111.151 11.1373C110.367 10.5679 110.77 9.32827 111.738 9.32827H117.743C118.176 9.32827 118.56 9.04931 118.694 8.63729L120.549 2.92705Z" fill="#FFA801"/>
</svg>
