<svg width="20" height="18" viewBox="0 0 20 18" fill="none" xmlns="http://www.w3.org/2000/svg">
<path d="M19.4395 17.0586L14.0259 12.0306C15.3268 10.58 15.9755 8.71952 15.8371 6.83605C15.6987 4.95259 14.7838 3.19121 13.2827 1.91831C11.7816 0.645413 9.80995 -0.0409893 7.77785 0.00189494C5.74575 0.0447792 3.80969 0.813648 2.37241 2.14855C0.935128 3.48346 0.107295 5.28163 0.0611223 7.16898C0.0149492 9.05634 0.753991 10.8876 2.12451 12.2817C3.49502 13.6759 5.39149 14.5256 7.41939 14.6542C9.44729 14.7828 11.4505 14.1803 13.0123 12.972L18.4259 18L19.4395 17.0586ZM1.5184 7.34744C1.5184 6.16232 1.89678 5.00382 2.60569 4.01843C3.3146 3.03304 4.3222 2.26502 5.50108 1.8115C6.67995 1.35797 7.97715 1.23931 9.22864 1.47051C10.4801 1.70172 11.6297 2.27241 12.532 3.11041C13.4342 3.94842 14.0487 5.0161 14.2976 6.17845C14.5466 7.34079 14.4188 8.5456 13.9305 9.6405C13.4422 10.7354 12.6153 11.6712 11.5543 12.3297C10.4933 12.9881 9.246 13.3395 7.96999 13.3395C6.25951 13.3377 4.61962 12.7059 3.41013 11.5825C2.20063 10.4592 1.5203 8.9361 1.5184 7.34744Z" fill="black"/>
</svg>
