<svg width="20" height="18" viewBox="0 0 20 18" fill="none" xmlns="http://www.w3.org/2000/svg">
<path d="M19.4396 17.0586L14.026 12.0306C15.3269 10.58 15.9757 8.71952 15.8372 6.83605C15.6988 4.95259 14.7839 3.19121 13.2828 1.91831C11.7817 0.645413 9.81007 -0.0409893 7.77797 0.00189494C5.74588 0.0447792 3.80981 0.813648 2.37253 2.14855C0.93525 3.48346 0.107417 5.28163 0.0612444 7.16898C0.0150713 9.05634 0.754113 10.8876 2.12463 12.2817C3.49514 13.6759 5.39161 14.5256 7.41951 14.6542C9.44741 14.7828 11.4506 14.1803 13.0124 12.972L18.426 18L19.4396 17.0586ZM1.51853 7.34744C1.51853 6.16232 1.8969 5.00382 2.60581 4.01843C3.31472 3.03304 4.32233 2.26502 5.5012 1.8115C6.68007 1.35797 7.97727 1.23931 9.22876 1.47051C10.4802 1.70172 11.6298 2.27241 12.5321 3.11041C13.4344 3.94842 14.0488 5.0161 14.2977 6.17845C14.5467 7.34079 14.4189 8.5456 13.9306 9.6405C13.4423 10.7354 12.6154 11.6712 11.5544 12.3297C10.4935 12.9881 9.24612 13.3395 7.97012 13.3395C6.25963 13.3377 4.61975 12.7059 3.41025 11.5825C2.20075 10.4592 1.52042 8.9361 1.51853 7.34744Z" fill="black"/>
</svg>
